<svg width="15" height="75" viewBox="0 0 15 75" fill="none" xmlns="http://www.w3.org/2000/svg">
<path d="M13.6 7.694L11.224 7.694L11.224 2.654L8.236 2.654L8.236 7.55L5.86 7.55L5.86 2.654L1 2.654L1 0.169999L13.6 0.17L13.6 7.694ZM2.116 17.064C1.204 16.152 0.747999 15.024 0.747999 13.68C0.747999 12.336 1.204 11.208 2.116 10.296C3.028 9.38398 4.156 8.92798 5.5 8.92798C6.832 8.92798 7.954 9.38398 8.866 10.296C9.79 11.22 10.252 12.348 10.252 13.68C10.252 15.012 9.79 16.14 8.866 17.064C7.942 17.988 6.82 18.45 5.5 18.45C4.168 18.45 3.04 17.988 2.116 17.064ZM3.718 11.934C3.25 12.402 3.016 12.984 3.016 13.68C3.016 14.376 3.25 14.958 3.718 15.426C4.186 15.894 4.78 16.128 5.5 16.128C6.22 16.128 6.814 15.894 7.282 15.426C7.75 14.958 7.984 14.376 7.984 13.68C7.984 12.984 7.75 12.402 7.282 11.934C6.802 11.478 6.208 11.25 5.5 11.25C4.792 11.25 4.198 11.478 3.718 11.934ZM0.999999 22.4055L0.999999 20.0835L14.14 20.0835L14.14 22.4055L0.999999 22.4055ZM0.999999 26.8527L0.999999 24.5307L14.14 24.5307L14.14 26.8528L0.999999 26.8527ZM2.116 36.646C1.204 35.734 0.747998 34.606 0.747998 33.262C0.747999 31.918 1.204 30.79 2.116 29.878C3.028 28.966 4.156 28.51 5.5 28.51C6.832 28.51 7.954 28.966 8.866 29.878C9.79 30.802 10.252 31.93 10.252 33.262C10.252 34.594 9.79 35.722 8.866 36.646C7.942 37.57 6.82 38.032 5.5 38.032C4.168 38.032 3.04 37.57 2.116 36.646ZM3.718 31.516C3.25 31.984 3.016 32.566 3.016 33.262C3.016 33.958 3.25 34.54 3.718 35.008C4.186 35.476 4.78 35.71 5.5 35.71C6.22 35.71 6.814 35.476 7.282 35.008C7.75 34.54 7.984 33.958 7.984 33.262C7.984 32.566 7.75 31.984 7.282 31.516C6.802 31.06 6.208 30.832 5.5 30.832C4.792 30.832 4.198 31.06 3.718 31.516ZM4.456 47.918L10 49.448L10 51.914L0.999998 49.052L0.999998 46.838L6.454 45.182L0.999998 43.526L0.999998 41.312L10 38.45L10 40.916L4.474 42.446L10 44.084L10 46.28L4.456 47.918ZM5.14 63.6055L10 63.6055L10 65.9275L0.999997 65.9275L0.999997 63.6055L2.008 63.6055C1.168 63.0535 0.747997 62.1595 0.747997 60.9235C0.747997 59.9395 1.078 59.1235 1.738 58.4755C2.41 57.8395 3.322 57.5215 4.474 57.5215L10 57.5215L10 59.8435L4.762 59.8435C4.174 59.8435 3.718 59.9995 3.394 60.3115C3.07 60.6355 2.908 61.0735 2.908 61.6255C2.908 62.2375 3.094 62.7175 3.466 63.0655C3.85 63.4255 4.408 63.6055 5.14 63.6055ZM7.444 70.1259C7.06 70.1259 6.73 70.6719 6.454 71.7639C6.37 72.1479 6.268 72.4959 6.148 72.8079C6.04 73.1199 5.878 73.4319 5.662 73.7439C5.458 74.0679 5.182 74.3199 4.834 74.4999C4.486 74.6799 4.084 74.7699 3.628 74.7699C2.704 74.7699 1.99 74.4219 1.486 73.7259C0.993997 73.0299 0.747997 72.1719 0.747997 71.1519C0.747997 69.3039 1.462 68.0439 2.89 67.3719L4.024 69.3879C3.244 69.6639 2.854 70.2519 2.854 71.1519C2.854 71.9799 3.112 72.3939 3.628 72.3939C4.012 72.3939 4.342 71.8479 4.618 70.7559C4.726 70.3479 4.834 69.9999 4.942 69.7119C5.05 69.4239 5.206 69.1119 5.41 68.7759C5.626 68.4399 5.896 68.1819 6.22 68.0019C6.556 67.8339 6.946 67.7499 7.39 67.7499C8.278 67.7499 8.974 68.0739 9.478 68.7219C9.994 69.3819 10.252 70.1979 10.252 71.1699C10.252 71.9019 10.084 72.5679 9.748 73.1679C9.424 73.7679 8.956 74.2419 8.344 74.5899L7.264 72.6099C7.876 72.3219 8.182 71.8419 8.182 71.1699C8.182 70.8699 8.11 70.6179 7.966 70.4139C7.834 70.2219 7.66 70.1259 7.444 70.1259Z" fill="white"/>
</svg>
